<?xml version="1.0" encoding="UTF-8"?>
<svg xmlns="http://www.w3.org/2000/svg" xmlns:xlink="http://www.w3.org/1999/xlink" width="375" zoomAndPan="magnify" viewBox="0 0 375 374.999991" height="374.999991" preserveAspectRatio="xMidYMid meet" version="1.0"><path fill="rgb(95.289612%, 43.919373%, 12.548828%)" d="M 47.257812 316.746094 C 20.753906 316.746094 0 296.628906 0 270.957031 L 0 142.695312 C 0 134.363281 6.78125 127.585938 15.105469 127.585938 C 23.976562 127.585938 27.941406 135.171875 27.941406 142.695312 L 27.941406 272.644531 C 27.941406 285.226562 35.921875 292.160156 50.40625 292.160156 L 127.914062 292.160156 C 142.390625 292.160156 150.367188 285.226562 150.367188 272.644531 L 150.367188 113.242188 L 178.339844 113.242188 L 178.339844 316.746094 Z M 47.257812 316.746094 " fill-opacity="1" fill-rule="nonzero"/><path fill="rgb(11.759949%, 11.759949%, 11.759949%)" d="M 150.90625 87.707031 L 178.183594 58.300781 L 178.183594 93.960938 L 150.90625 93.960938 Z M 150.90625 87.707031 " fill-opacity="1" fill-rule="nonzero"/><path fill="rgb(95.289612%, 43.919373%, 12.548828%)" d="M 197.570312 316.398438 L 197.570312 127.582031 L 328.007812 127.582031 C 355.597656 127.582031 374.851562 149.785156 374.851562 181.574219 C 374.851562 213.152344 351.265625 236.078125 318.761719 236.078125 L 272.167969 236.078125 C 263.59375 236.078125 257.609375 230.808594 257.609375 223.269531 C 257.609375 215.726562 263.59375 210.449219 272.167969 210.449219 L 317.535156 210.449219 C 331.894531 210.449219 344.976562 196.6875 344.976562 181.585938 C 344.976562 166.480469 332.15625 153.234375 317.535156 153.234375 L 249.988281 153.234375 C 234.992188 153.234375 226.730469 160.40625 226.730469 173.445312 L 226.730469 316.398438 Z M 197.570312 316.398438 " fill-opacity="1" fill-rule="nonzero"/></svg>